HIERARCHY
ROOT hip
{
	OFFSET 0.000000 0.000000 0.000000 
	CHANNELS 6 Xposition Yposition Zposition Xrotation Zrotation Yrotation
	JOINT abdomen
	{
		OFFSET 0.000000 3.402643 0.000000 
		CHANNELS 3 Xrotation Zrotation Yrotation
		JOINT chest
		{
			OFFSET 0.000000 8.438565 -0.680529 
			CHANNELS 3 Xrotation Zrotation Yrotation
			JOINT neck
			{
				OFFSET 0.000000 10.207942 -0.272212 
				CHANNELS 3 Xrotation Zrotation Yrotation
				JOINT head
				{
					OFFSET 0.000000 3.130431 0.000000 
					CHANNELS 3 Xrotation Zrotation Yrotation
					End Site
					{
						OFFSET 0.000000 3.130435 0.000000 
					}
				}
			}
			JOINT lCollar
			{
				OFFSET 3.470700 6.669187 -0.816635 
				CHANNELS 3 Yrotation Zrotation Xrotation
				JOINT lShldr
				{
					OFFSET 3.198488 0.000000 0.000000 
					CHANNELS 3 Zrotation Yrotation Xrotation
					JOINT lForeArm
					{
						OFFSET 10.139888 0.000000 0.000000 
						CHANNELS 3 Yrotation Zrotation Xrotation
						JOINT lHand
						{
							OFFSET 8.370511 0.000000 0.000000 
							CHANNELS 3 Zrotation Yrotation Xrotation
							End Site
							{
								OFFSET 4.083176 0.000000 0.000000 
							}
						}
					}
				}
			}
			JOINT rCollar
			{
				OFFSET -3.470700 6.669187 -0.816635 
				CHANNELS 3 Yrotation Zrotation Xrotation
				JOINT rShldr
				{
					OFFSET -3.198488 0.000000 0.000000 
					CHANNELS 3 Zrotation Yrotation Xrotation
					JOINT rForeArm
					{
						OFFSET -10.139888 0.000000 0.000000 
						CHANNELS 3 Yrotation Zrotation Xrotation
						JOINT rHand
						{
							OFFSET -8.370511 0.000000 0.000000 
							CHANNELS 3 Zrotation Yrotation Xrotation
							End Site
							{
								OFFSET -4.083176 0.000000 0.000000 
							}
						}
					}
				}
			}
		}
	}
	JOINT lThigh
	{
		OFFSET 5.308129 -1.633274 1.361059 
		CHANNELS 3 Xrotation Zrotation Yrotation
		JOINT lShin
		{
			OFFSET -2.041588 -20.007561 0.000000 
			CHANNELS 3 Xrotation Zrotation Yrotation
			JOINT lFoot
			{
				OFFSET 0.000000 -19.190928 -1.224953 
				CHANNELS 3 Xrotation Yrotation Zrotation
				End Site
				{
					OFFSET 0.000000 -2.449906 4.627600 
				}
			}
		}
	}
	JOINT rThigh
	{
		OFFSET -5.308129 -1.633274 1.361059 
		CHANNELS 3 Xrotation Zrotation Yrotation
		JOINT rShin
		{
			OFFSET 2.041588 -20.007561 0.000000 
			CHANNELS 3 Xrotation Zrotation Yrotation
			JOINT rFoot
			{
				OFFSET 0.000000 -19.190928 -1.224953 
				CHANNELS 3 Xrotation Yrotation Zrotation
				End Site
				{
					OFFSET 0.000000 -2.449906 4.627600 
				}
			}
		}
	}
}
MOTION
Frames: 6
Frame Time: 0.016667
0.056536 52.678314 -11.953076 -8.825833 -4.138117 1.996858 27.003487 7.882412 2.845257 -2.824698 2.851561 0.048889 -2.430711 -0.830073 -0.002942 13.006247 -10.420921 15.605312 -12.560626 -16.084019 -0.850667 -65.864967 16.413750 -25.290506 -25.246740 -5.000000 32.809864 -16.434435 4.747456 -3.181109 14.043015 13.721737 -0.732689 62.204006 -21.374315 -30.095030 17.344151 5.000000 38.400360 20.531488 -23.432590 -10.234203 -2.938102 4.793228 -8.248975 11.639130 -7.820580 -1.962651 -1.005064 3.389935 4.681954 18.575865 -2.848938 4.283519 40.543255 5.074889 4.742375 10.841831 11.442847 22.366398 
0.247802 52.790279 -11.112048 -8.968163 -4.167890 1.791609 27.064100 8.064669 2.795870 -2.896162 2.705073 -0.038932 -2.029849 -0.969635 -0.011474 13.067299 -10.360042 15.879210 -12.633569 -16.376562 -0.865762 -65.568741 17.527796 -26.697430 -25.617905 -5.000000 33.892757 -16.804630 4.660516 -3.536913 13.969973 14.102072 -0.752390 61.325733 -20.530140 -28.446024 17.501497 5.000000 38.551105 20.803854 -23.669939 -8.628635 -1.297166 4.867846 -6.550705 11.162108 -7.977851 -1.943439 -1.305103 2.089419 4.699652 16.007565 -2.975999 3.017201 45.490929 4.477792 4.987348 14.387543 11.001074 21.086016 
0.421333 52.861423 -10.306759 -9.152478 -4.197239 1.762388 27.170565 8.224619 2.761997 -2.851324 2.539044 -0.175570 -1.765612 -1.118853 -0.018544 13.027556 -10.316482 15.996103 -12.794812 -16.688610 -0.884643 -65.114212 18.166315 -27.509611 -25.695513 -5.000000 34.757782 -16.855366 4.533283 -3.716999 13.809193 14.482417 -0.774503 60.523209 -19.568539 -26.892664 18.039082 5.000000 38.127071 20.900457 -23.831110 -6.575708 0.204844 4.935459 -4.814846 10.856065 -8.116054 -1.931121 -1.738881 0.640743 4.770653 13.532283 -2.889436 1.507037 49.888199 3.546763 4.509298 14.063272 9.403584 19.598743 
0.583038 52.905376 -9.525308 -9.364955 -4.226318 1.850038 27.302404 8.394790 2.744465 -2.729293 2.353471 -0.380964 -1.608698 -1.277726 -0.024151 12.936337 -10.287820 16.005699 -13.034610 -17.020159 -0.901750 -64.541534 18.488932 -27.937439 -25.581825 -5.000000 35.494186 -16.701801 4.391957 -3.802790 13.570442 14.862773 -0.794205 59.784912 -18.538517 -25.417702 18.834602 5.000000 37.323360 20.895531 -23.944283 -4.236555 1.679242 4.959514 -3.007434 10.610218 -8.229066 -1.951828 -2.293273 -0.859842 4.916482 11.116824 -2.703944 -0.152098 53.931347 2.460361 3.518623 11.071426 7.188569 17.834045 
0.741830 52.942131 -8.757144 -9.557480 -4.177231 1.967633 27.423033 8.462976 2.718391 -2.606541 2.187420 -0.595720 -1.451690 -1.436599 -0.029755 12.849454 -10.270541 15.975170 -13.264272 -17.322451 -0.920228 -63.969265 18.705229 -28.205439 -25.378963 -5.000000 36.152992 -16.498766 4.210496 -3.791188 13.397046 15.206373 -0.802688 59.161266 -17.554394 -24.077206 19.739155 5.000000 36.408779 20.519535 -24.055470 -2.229704 3.055956 4.900067 -1.536383 10.446798 -8.357787 -1.981753 -2.873085 -2.193126 4.968653 8.709064 -2.587677 -1.773741 57.701576 1.425293 2.279397 8.199159 5.262646 15.833864 
0.888963 52.950119 -8.042138 -9.697866 -3.844848 2.192397 27.575691 8.186632 2.653803 -2.514938 2.099464 -0.888935 -1.363222 -1.574700 -0.028622 12.819739 -10.344238 15.819891 -13.482595 -17.527227 -0.930795 -63.389347 18.460751 -27.811682 -24.866379 -5.000000 36.510372 -16.107115 3.854028 -3.461716 13.438537 15.372151 -0.813844 58.883183 -16.845587 -23.208111 21.099497 5.000000 35.040058 18.557610 -24.021233 -1.510406 4.159691 4.539434 -1.467017 10.483389 -8.453676 -2.002919 -3.751584 -2.668803 4.831460 6.324766 -2.586776 -3.171771 60.368286 0.321547 0.224401 6.028656 4.401847 13.417700 
